<?xml version="1.0" encoding="iso-8859-1"?>
<!-- Generator: Adobe Illustrator 18.0.0, SVG Export Plug-In . SVG Version: 6.00 Build 0)  -->
<!DOCTYPE svg PUBLIC "-//W3C//DTD SVG 1.1//EN" "http://www.w3.org/Graphics/SVG/1.1/DTD/svg11.dtd">
<svg version="1.1" id="Capa_1" xmlns="http://www.w3.org/2000/svg" xmlns:xlink="http://www.w3.org/1999/xlink" x="0px" y="0px"
	 viewBox="0 0 60 60" style="enable-background:new 0 0 60 60;" xml:space="preserve">
<g>
	<path d="M47,31c-7.168,0-13,5.832-13,13s5.832,13,13,13s13-5.832,13-13S54.168,31,47,31z M47,55c-6.065,0-11-4.935-11-11
		s4.935-11,11-11s11,4.935,11,11S53.065,55,47,55z"/>
	<path d="M53,43h-5v-5c0-0.553-0.448-1-1-1s-1,0.447-1,1v5h-5c-0.552,0-1,0.447-1,1s0.448,1,1,1h5v5c0,0.553,0.448,1,1,1
		s1-0.447,1-1v-5h5c0.552,0,1-0.447,1-1S53.552,43,53,43z"/>
	<path d="M47,28c0.338,0,0.668,0.03,1,0.051V27h8v3.782c0.713,0.487,1.376,1.037,2,1.63V4c0-0.553-0.448-1-1-1H1
		C0.448,3,0,3.447,0,4v44c0,0.553,0.448,1,1,1h30.811C31.291,47.425,31,45.747,31,44C31,35.178,38.178,28,47,28z M48,5h8v9h-8V5z
		 M48,16h8v9h-8V16z M10,47H2v-9h8V47z M10,36H2v-9h8V36z M10,25H2v-9h8V25z M10,14H2V5h8V14z M25,34
		c-0.166,0-0.331-0.041-0.481-0.123C24.199,33.701,24,33.365,24,33V19c0-0.365,0.199-0.701,0.519-0.877
		c0.32-0.175,0.71-0.162,1.019,0.033l11,7C36.825,25.34,37,25.658,37,26s-0.175,0.66-0.463,0.844l-11,7
		C25.374,33.947,25.187,34,25,34z"/>
</g>
<g>
</g>
<g>
</g>
<g>
</g>
<g>
</g>
<g>
</g>
<g>
</g>
<g>
</g>
<g>
</g>
<g>
</g>
<g>
</g>
<g>
</g>
<g>
</g>
<g>
</g>
<g>
</g>
<g>
</g>
</svg>
